<svg xmlns="http://www.w3.org/2000/svg" width="984" height="492" viewBox="0 0 984 492" font-family="ui-sans-serif, system-ui, -apple-system, 'Segoe UI', Helvetica, Arial, sans-serif">
<rect x="0.5" y="0.5" width="983" height="491" rx="8" fill="#fcfcfb" stroke="#e1e0d9"/>
<text x="24" y="30" font-size="15" font-weight="600" fill="#0b0b0b">Pose-graph optimization: time per iteration</text>
<text x="960" y="30" font-size="11.5" text-anchor="end" fill="#85847c">arael 0.9.0</text>
<text x="24" y="48" font-size="11.5" fill="#5f5e58">Four datasets, seven systems, single thread (Apple M4 Pro); best validated configuration per system, both arael precisions. Lower is better.</text>
<text x="24" y="70" font-size="12.5" font-weight="600" fill="#0b0b0b">M3500 (2D, 10.5k params)</text>
<line x1="116.0" y1="78" x2="116.0" y2="214" stroke="#e1e0d9" stroke-width="1"/>
<text x="116.0" y="226" font-size="10" text-anchor="middle" fill="#85847c">0</text>
<line x1="234.3" y1="78" x2="234.3" y2="214" stroke="#e1e0d9" stroke-width="1"/>
<text x="234.3" y="226" font-size="10" text-anchor="middle" fill="#85847c">5</text>
<line x1="352.7" y1="78" x2="352.7" y2="214" stroke="#e1e0d9" stroke-width="1"/>
<text x="352.7" y="226" font-size="10" text-anchor="middle" fill="#85847c">10</text>
<line x1="471.0" y1="78" x2="471.0" y2="214" stroke="#e1e0d9" stroke-width="1"/>
<text x="471.0" y="226" font-size="10" text-anchor="middle" fill="#85847c">15 ms</text>
<text x="108" y="91.0" font-size="11.5" text-anchor="end" font-weight="600" fill="#0b0b0b">arael (f32)</text>
<path d="M116,81.5 L143.53,81.5 Q146.53,81.5 146.53,84.5 L146.53,90.5 Q146.53,93.5 143.53,93.5 L116,93.5 Z" fill="#2a78d6"/>
<text x="152.5" y="91.0" font-size="10.5" font-weight="600" fill="#0b0b0b">1.3</text>
<text x="108" y="110.0" font-size="11.5" text-anchor="end" font-weight="600" fill="#0b0b0b">arael (f64)</text>
<path d="M116,100.5 L150.63,100.5 Q153.63,100.5 153.63,103.5 L153.63,109.5 Q153.63,112.5 150.63,112.5 L116,112.5 Z" fill="#2a78d6"/>
<text x="159.6" y="110.0" font-size="10.5" font-weight="600" fill="#0b0b0b">1.6</text>
<text x="108" y="129.0" font-size="11.5" text-anchor="end" fill="#5f5e58">SymForce (f32)</text>
<path d="M116,119.5 L197.49,119.5 Q200.49,119.5 200.49,122.5 L200.49,128.5 Q200.49,131.5 197.49,131.5 L116,131.5 Z" fill="#8f8e86"/>
<text x="206.5" y="129.0" font-size="10.5" fill="#0b0b0b">3.6</text>
<text x="108" y="148.0" font-size="11.5" text-anchor="end" fill="#5f5e58">g2o (GN)</text>
<path d="M116,138.5 L199.85666666666668,138.5 Q202.85666666666668,138.5 202.85666666666668,141.5 L202.85666666666668,147.5 Q202.85666666666668,150.5 199.85666666666668,150.5 L116,150.5 Z" fill="#8f8e86"/>
<text x="208.9" y="148.0" font-size="10.5" fill="#0b0b0b">3.7</text>
<text x="108" y="167.0" font-size="11.5" text-anchor="end" fill="#5f5e58">Ceres (LM)</text>
<path d="M116,157.5 L233.4633333333333,157.5 Q236.4633333333333,157.5 236.4633333333333,160.5 L236.4633333333333,166.5 Q236.4633333333333,169.5 233.4633333333333,169.5 L116,169.5 Z" fill="#8f8e86"/>
<text x="242.5" y="167.0" font-size="10.5" fill="#0b0b0b">5.1</text>
<text x="108" y="186.0" font-size="11.5" text-anchor="end" fill="#5f5e58">factrs (GN)</text>
<path d="M116,176.5 L253.81666666666666,176.5 Q256.81666666666666,176.5 256.81666666666666,179.5 L256.81666666666666,185.5 Q256.81666666666666,188.5 253.81666666666666,188.5 L116,188.5 Z" fill="#8f8e86"/>
<text x="262.8" y="186.0" font-size="10.5" fill="#0b0b0b">6.0</text>
<text x="108" y="205.0" font-size="11.5" text-anchor="end" fill="#5f5e58">GTSAM (GN)</text>
<path d="M116,195.5 L434.3933333333333,195.5 Q437.3933333333333,195.5 437.3933333333333,198.5 L437.3933333333333,204.5 Q437.3933333333333,207.5 434.3933333333333,207.5 L116,207.5 Z" fill="#8f8e86"/>
<text x="443.4" y="205.0" font-size="10.5" fill="#0b0b0b">13.6</text>
<text x="495" y="70" font-size="12.5" font-weight="600" fill="#0b0b0b">city10000 (2D, 30k params)</text>
<line x1="587.0" y1="78" x2="587.0" y2="214" stroke="#e1e0d9" stroke-width="1"/>
<text x="587.0" y="226" font-size="10" text-anchor="middle" fill="#85847c">0</text>
<line x1="723.5" y1="78" x2="723.5" y2="214" stroke="#e1e0d9" stroke-width="1"/>
<text x="723.5" y="226" font-size="10" text-anchor="middle" fill="#85847c">10</text>
<line x1="860.1" y1="78" x2="860.1" y2="214" stroke="#e1e0d9" stroke-width="1"/>
<text x="860.1" y="226" font-size="10" text-anchor="middle" fill="#85847c">20 ms</text>
<text x="579" y="91.0" font-size="11.5" text-anchor="end" font-weight="600" fill="#0b0b0b">arael (f32)</text>
<path d="M587,81.5 L679.4403846153846,81.5 Q682.4403846153846,81.5 682.4403846153846,84.5 L682.4403846153846,90.5 Q682.4403846153846,93.5 679.4403846153846,93.5 L587,93.5 Z" fill="#2a78d6"/>
<text x="688.4" y="91.0" font-size="10.5" font-weight="600" fill="#0b0b0b">7.0</text>
<text x="579" y="110.0" font-size="11.5" text-anchor="end" font-weight="600" fill="#0b0b0b">arael (f64)</text>
<path d="M587,100.5 L705.1096153846154,100.5 Q708.1096153846154,100.5 708.1096153846154,103.5 L708.1096153846154,109.5 Q708.1096153846154,112.5 705.1096153846154,112.5 L587,112.5 Z" fill="#2a78d6"/>
<text x="714.1" y="110.0" font-size="10.5" font-weight="600" fill="#0b0b0b">8.9</text>
<text x="579" y="129.0" font-size="11.5" text-anchor="end" fill="#5f5e58">g2o (GN)</text>
<path d="M587,119.5 L824.3076923076924,119.5 Q827.3076923076924,119.5 827.3076923076924,122.5 L827.3076923076924,128.5 Q827.3076923076924,131.5 824.3076923076924,131.5 L587,131.5 Z" fill="#8f8e86"/>
<text x="833.3" y="129.0" font-size="10.5" fill="#0b0b0b">17.6</text>
<text x="579" y="148.0" font-size="11.5" text-anchor="end" fill="#5f5e58">Ceres (LM)</text>
<path d="M587,138.5 L888.6173076923077,138.5 Q891.6173076923077,138.5 891.6173076923077,141.5 L891.6173076923077,147.5 Q891.6173076923077,150.5 888.6173076923077,150.5 L587,150.5 Z" fill="#8f8e86"/>
<text x="897.6" y="148.0" font-size="10.5" fill="#0b0b0b">22.3</text>
<text x="579" y="167.0" font-size="11.5" text-anchor="end" fill="#5f5e58">SymForce (f64)</text>
<path d="M587,157.5 L893.123076923077,157.5 Q896.123076923077,157.5 896.123076923077,160.5 L896.123076923077,166.5 Q896.123076923077,169.5 893.123076923077,169.5 L587,169.5 Z" fill="#8f8e86"/>
<text x="902.1" y="167.0" font-size="10.5" fill="#0b0b0b">22.6</text>
<text x="579" y="186.0" font-size="11.5" text-anchor="end" fill="#5f5e58">factrs (GN)</text>
<path d="M587,176.5 L900.7692307692307,176.5 Q903.7692307692307,176.5 903.7692307692307,179.5 L903.7692307692307,185.5 Q903.7692307692307,188.5 900.7692307692307,188.5 L587,188.5 Z" fill="#8f8e86"/>
<text x="909.8" y="186.0" font-size="10.5" fill="#0b0b0b">23.2</text>
<text x="579" y="205.0" font-size="11.5" text-anchor="end" fill="#5f5e58">GTSAM</text>
<text x="591" y="205.0" font-size="10.5" font-style="italic" fill="#85847c">did not converge</text>
<text x="24" y="261" font-size="12.5" font-weight="600" fill="#0b0b0b">sphere2500 (3D, 15k params)</text>
<line x1="116.0" y1="269" x2="116.0" y2="405" stroke="#e1e0d9" stroke-width="1"/>
<text x="116.0" y="417" font-size="10" text-anchor="middle" fill="#85847c">0</text>
<line x1="210.7" y1="269" x2="210.7" y2="405" stroke="#e1e0d9" stroke-width="1"/>
<text x="210.7" y="417" font-size="10" text-anchor="middle" fill="#85847c">20</text>
<line x1="305.3" y1="269" x2="305.3" y2="405" stroke="#e1e0d9" stroke-width="1"/>
<text x="305.3" y="417" font-size="10" text-anchor="middle" fill="#85847c">40</text>
<line x1="400.0" y1="269" x2="400.0" y2="405" stroke="#e1e0d9" stroke-width="1"/>
<text x="400.0" y="417" font-size="10" text-anchor="middle" fill="#85847c">60 ms</text>
<text x="108" y="282.0" font-size="11.5" text-anchor="end" font-weight="600" fill="#0b0b0b">arael (f32)</text>
<path d="M116,272.5 L161.04333333333335,272.5 Q164.04333333333335,272.5 164.04333333333335,275.5 L164.04333333333335,281.5 Q164.04333333333335,284.5 161.04333333333335,284.5 L116,284.5 Z" fill="#2a78d6"/>
<text x="170.0" y="282.0" font-size="10.5" font-weight="600" fill="#0b0b0b">10.2</text>
<text x="108" y="301.0" font-size="11.5" text-anchor="end" font-weight="600" fill="#0b0b0b">arael (f64)</text>
<path d="M116,291.5 L183.29,291.5 Q186.29,291.5 186.29,294.5 L186.29,300.5 Q186.29,303.5 183.29,303.5 L116,303.5 Z" fill="#2a78d6"/>
<text x="192.3" y="301.0" font-size="10.5" font-weight="600" fill="#0b0b0b">14.8</text>
<text x="108" y="320.0" font-size="11.5" text-anchor="end" fill="#5f5e58">g2o (LM)</text>
<path d="M116,310.5 L203.596,310.5 Q206.596,310.5 206.596,313.5 L206.596,319.5 Q206.596,322.5 203.596,322.5 L116,322.5 Z" fill="#8f8e86"/>
<text x="212.6" y="320.0" font-size="10.5" fill="#0b0b0b">19.1</text>
<text x="108" y="339.0" font-size="11.5" text-anchor="end" fill="#5f5e58">Ceres (LM)</text>
<path d="M116,329.5 L224.80133333333333,329.5 Q227.80133333333333,329.5 227.80133333333333,332.5 L227.80133333333333,338.5 Q227.80133333333333,341.5 224.80133333333333,341.5 L116,341.5 Z" fill="#8f8e86"/>
<text x="233.8" y="339.0" font-size="10.5" fill="#0b0b0b">23.6</text>
<text x="108" y="358.0" font-size="11.5" text-anchor="end" fill="#5f5e58">GTSAM (GN)</text>
<path d="M116,348.5 L237.392,348.5 Q240.392,348.5 240.392,351.5 L240.392,357.5 Q240.392,360.5 237.392,360.5 L116,360.5 Z" fill="#8f8e86"/>
<text x="246.4" y="358.0" font-size="10.5" fill="#0b0b0b">26.3</text>
<text x="108" y="377.0" font-size="11.5" text-anchor="end" fill="#5f5e58">factrs (GN)</text>
<path d="M116,367.5 L238.102,367.5 Q241.102,367.5 241.102,370.5 L241.102,376.5 Q241.102,379.5 238.102,379.5 L116,379.5 Z" fill="#8f8e86"/>
<text x="247.1" y="377.0" font-size="10.5" fill="#0b0b0b">26.4</text>
<text x="108" y="396.0" font-size="11.5" text-anchor="end" fill="#5f5e58">SymForce (f32)</text>
<path d="M116,386.5 L463.26666666666665,386.5 Q466.26666666666665,386.5 466.26666666666665,389.5 L466.26666666666665,395.5 Q466.26666666666665,398.5 463.26666666666665,398.5 L116,398.5 Z" fill="#8f8e86"/>
<text x="472.3" y="396.0" font-size="10.5" fill="#0b0b0b">74.0</text>
<text x="495" y="261" font-size="12.5" font-weight="600" fill="#0b0b0b">parking-garage (3D, 10k params)</text>
<line x1="587.0" y1="269" x2="587.0" y2="405" stroke="#e1e0d9" stroke-width="1"/>
<text x="587.0" y="417" font-size="10" text-anchor="middle" fill="#85847c">0</text>
<line x1="667.7" y1="269" x2="667.7" y2="405" stroke="#e1e0d9" stroke-width="1"/>
<text x="667.7" y="417" font-size="10" text-anchor="middle" fill="#85847c">5</text>
<line x1="748.4" y1="269" x2="748.4" y2="405" stroke="#e1e0d9" stroke-width="1"/>
<text x="748.4" y="417" font-size="10" text-anchor="middle" fill="#85847c">10</text>
<line x1="829.0" y1="269" x2="829.0" y2="405" stroke="#e1e0d9" stroke-width="1"/>
<text x="829.0" y="417" font-size="10" text-anchor="middle" fill="#85847c">15</text>
<line x1="909.7" y1="269" x2="909.7" y2="405" stroke="#e1e0d9" stroke-width="1"/>
<text x="909.7" y="417" font-size="10" text-anchor="middle" fill="#85847c">20 ms</text>
<text x="579" y="282.0" font-size="11.5" text-anchor="end" font-weight="600" fill="#0b0b0b">arael (f32)</text>
<path d="M587,272.5 L626.4386363636363,272.5 Q629.4386363636363,272.5 629.4386363636363,275.5 L629.4386363636363,281.5 Q629.4386363636363,284.5 626.4386363636363,284.5 L587,284.5 Z" fill="#2a78d6"/>
<text x="635.4" y="282.0" font-size="10.5" font-weight="600" fill="#0b0b0b">2.6*</text>
<text x="579" y="301.0" font-size="11.5" text-anchor="end" font-weight="600" fill="#0b0b0b">arael (f64)</text>
<path d="M587,291.5 L634.6681818181818,291.5 Q637.6681818181818,291.5 637.6681818181818,294.5 L637.6681818181818,300.5 Q637.6681818181818,303.5 634.6681818181818,303.5 L587,303.5 Z" fill="#2a78d6"/>
<text x="643.7" y="301.0" font-size="10.5" font-weight="600" fill="#0b0b0b">3.1</text>
<text x="579" y="320.0" font-size="11.5" text-anchor="end" fill="#5f5e58">g2o (GN)</text>
<path d="M587,310.5 L684.0454545454545,310.5 Q687.0454545454545,310.5 687.0454545454545,313.5 L687.0454545454545,319.5 Q687.0454545454545,322.5 684.0454545454545,322.5 L587,322.5 Z" fill="#8f8e86"/>
<text x="693.0" y="320.0" font-size="10.5" fill="#0b0b0b">6.2</text>
<text x="579" y="339.0" font-size="11.5" text-anchor="end" fill="#5f5e58">SymForce (f32)</text>
<path d="M587,329.5 L728.7431818181818,329.5 Q731.7431818181818,329.5 731.7431818181818,332.5 L731.7431818181818,338.5 Q731.7431818181818,341.5 728.7431818181818,341.5 L587,341.5 Z" fill="#8f8e86"/>
<text x="737.7" y="339.0" font-size="10.5" fill="#0b0b0b">9.0</text>
<text x="579" y="358.0" font-size="11.5" text-anchor="end" fill="#5f5e58">Ceres (LM)</text>
<path d="M587,348.5 L774.2477272727273,348.5 Q777.2477272727273,348.5 777.2477272727273,351.5 L777.2477272727273,357.5 Q777.2477272727273,360.5 774.2477272727273,360.5 L587,360.5 Z" fill="#8f8e86"/>
<text x="783.2" y="358.0" font-size="10.5" fill="#0b0b0b">11.8</text>
<text x="579" y="377.0" font-size="11.5" text-anchor="end" fill="#5f5e58">GTSAM (GN)</text>
<path d="M587,367.5 L788.4477272727273,367.5 Q791.4477272727273,367.5 791.4477272727273,370.5 L791.4477272727273,376.5 Q791.4477272727273,379.5 788.4477272727273,379.5 L587,379.5 Z" fill="#8f8e86"/>
<text x="797.4" y="377.0" font-size="10.5" fill="#0b0b0b">12.7</text>
<text x="579" y="396.0" font-size="11.5" text-anchor="end" fill="#5f5e58">factrs (GN)</text>
<path d="M587,386.5 L881.5545454545454,386.5 Q884.5545454545454,386.5 884.5545454545454,389.5 L884.5545454545454,395.5 Q884.5545454545454,398.5 881.5545454545454,398.5 L587,398.5 Z" fill="#8f8e86"/>
<text x="890.6" y="396.0" font-size="10.5" fill="#0b0b0b">18.4</text>
<text x="24" y="440" font-size="10.5" fill="#85847c">Excludes setup -- assembly, ordering and symbolic factorization -- which every system pays once, during its first iteration.</text>
<text x="24" y="454" font-size="10.5" fill="#85847c">Every bar is validated against its dataset's common optimum (cost within 1%, rigid-aligned RMSE under 5 cm).</text>
<text x="24" y="468" font-size="10.5" fill="#85847c">* arael f32 on the parking garage passes the cost gate (0.02% above the optimum) but not the geometric one -- a single-precision floor shared by SymForce's f32.</text>
</svg>
